<svg width="90" height="78" viewBox="0 0 90 78" fill="none" xmlns="http://www.w3.org/2000/svg">
<g clip-path="url(#clip0_5_16)">
<path d="M53.7615 45.5233C54.4698 47.2493 54.861 49.1397 54.861 51.1205C54.861 59.2655 48.259 65.867 40.1171 65.867C31.9752 65.867 25.3733 59.2639 25.3733 51.1205C25.3733 42.9771 31.9752 36.374 40.1171 36.374C41.9907 36.374 43.7838 36.7241 45.4322 37.3619" stroke="#DADDE0" stroke-width="2.74259" stroke-miterlimit="10"/>
<path d="M40.127 24.4367C25.3815 24.4367 13.4382 36.3822 13.4382 51.1172C13.4382 61.5668 19.4222 70.5962 28.159 74.9835C28.565 73.8427 29.1221 72.4471 29.7696 71.2422C22.4791 67.4878 17.496 59.8803 17.496 51.1172C17.496 38.626 27.6265 28.4936 40.127 28.4936C52.616 28.4936 62.7465 38.626 62.7465 51.1172C62.7465 63.6084 52.616 73.7523 40.127 73.7523C39.2263 73.7523 38.352 73.7013 37.4777 73.5879C37.098 75.0213 36.9452 76.4531 36.8811 77.6087C37.9461 77.7484 39.0242 77.8108 40.127 77.8108C54.8593 77.8108 66.8027 65.8654 66.8027 51.1172C66.8027 36.369 54.8593 24.4367 40.127 24.4367Z" fill="#DADDE0"/>
<path d="M52.0522 0.562169L48.7187 -0.000793457L45.3412 20.0054L48.6747 20.5684L52.0522 0.562169Z" fill="#DADDE0"/>
<path d="M25.0928 1.38397L21.9245 2.56348L29.0009 21.5784L32.1692 20.3989L25.0928 1.38397Z" fill="#DADDE0"/>
<path d="M2.1564 15.5764L0.00219727 18.1824L15.6362 31.111L17.7904 28.505L2.1564 15.5764Z" fill="#DADDE0"/>
<path d="M89.9986 36.2744L88.8193 33.1055L69.8078 40.1831L70.9871 43.352L89.9986 36.2744Z" fill="#DADDE0"/>
<path d="M75.8099 13.3332L73.2045 11.1786L60.2782 26.8155L62.8837 28.9701L75.8099 13.3332Z" fill="#DADDE0"/>
<path d="M52.0522 0.562169L48.7187 -0.000793457L45.3412 20.0054L48.6747 20.5684L52.0522 0.562169Z" fill="#DADDE0"/>
<path d="M25.0928 1.38397L21.9245 2.56348L29.0009 21.5784L32.1692 20.3989L25.0928 1.38397Z" fill="#DADDE0"/>
<path d="M40.1205 60.5049C40.1205 54.9966 35.6551 50.5304 30.1477 50.5304C35.6551 50.5304 40.1205 46.0642 40.1205 40.5558C40.1205 46.0642 44.5859 50.5304 50.0932 50.5304C44.5859 50.5304 40.1205 54.9966 40.1205 60.5049Z" fill="#DADDE0"/>
</g>
<defs>
<clipPath id="clip0_5_16">
<rect width="90" height="78" fill="white"/>
</clipPath>
</defs>
</svg>
