<svg width="100" height="87" viewBox="0 0 100 87" fill="none" xmlns="http://www.w3.org/2000/svg">
<g clip-path="url(#clip0_55_7)">
<path d="M44.5733 75.0562C34.5038 75.0562 26.3116 66.864 26.3116 56.7945C26.3116 46.7249 34.5038 38.5327 44.5733 38.5327C46.8425 38.5327 49.0572 38.9441 51.1565 39.7558L49.802 43.2595C48.1364 42.6157 46.3772 42.2893 44.5733 42.2893C36.5751 42.2893 30.0682 48.7964 30.0682 56.7945C30.0682 64.7925 36.5753 71.2996 44.5733 71.2996C52.5713 71.2996 59.0784 64.7925 59.0784 56.7945C59.0784 54.8878 58.7148 53.0354 57.9977 51.2888L61.4728 49.8621C62.3766 52.0636 62.8349 54.396 62.8349 56.7945C62.8349 66.864 54.6428 75.0562 44.5733 75.0562Z" fill="#57B7F2"/>
<path d="M44.5849 27.1489C28.2002 27.1489 14.929 40.4202 14.929 56.791C14.929 68.3999 21.5786 78.4308 31.2855 83.3054C31.7364 82.0373 32.3563 80.4876 33.0748 79.1492C24.974 74.979 19.4373 66.5259 19.4373 56.7909C19.4373 42.9138 30.6939 31.6571 44.585 31.6571C58.462 31.6571 69.7186 42.9138 69.7186 56.7909C69.7186 70.6679 58.462 81.9387 44.585 81.9387C43.5848 81.9387 42.6126 81.8824 41.6405 81.7555C41.2179 83.3476 41.0488 84.9395 40.9783 86.2217C42.1618 86.3766 43.3592 86.4471 44.585 86.4471C60.9557 86.4471 74.2268 73.1758 74.2268 56.791C74.2268 40.4063 60.9556 27.1489 44.585 27.1489H44.5849Z" fill="#57B7F2"/>
<path d="M57.8359 0.625505L54.1315 0L50.3785 22.2268L54.083 22.8523L57.8359 0.625505Z" fill="#57B7F2"/>
<path d="M27.8804 1.53662L24.3594 2.84717L32.2226 23.9726L35.7435 22.6621L27.8804 1.53662Z" fill="#57B7F2"/>
<path d="M2.394 17.3033L6.10352e-05 20.1987L17.3724 34.5623L19.7664 31.6669L2.394 17.3033Z" fill="#57B7F2"/>
<path d="M100 40.3007L98.6899 36.7798L77.5646 44.643L78.8751 48.1639L100 40.3007Z" fill="#57B7F2"/>
<path d="M84.2337 14.8139L81.3383 12.4199L66.9748 29.7924L69.8702 32.1863L84.2337 14.8139Z" fill="#57B7F2"/>
<path d="M57.8359 0.625505L54.1315 0L50.3785 22.2268L54.083 22.8523L57.8359 0.625505Z" fill="#57B7F2"/>
<path d="M27.8804 1.53662L24.3594 2.84717L32.2226 23.9726L35.7435 22.6621L27.8804 1.53662Z" fill="#57B7F2"/>
<path d="M44.5779 67.2187C44.5779 61.0991 39.6169 56.1379 33.4971 56.1379C39.6167 56.1379 44.5779 51.1769 44.5779 45.0571C44.5779 51.1768 49.5388 56.1379 55.6586 56.1379C49.539 56.1379 44.5779 61.0989 44.5779 67.2187Z" fill="#368DD9"/>
</g>
<defs>
<clipPath id="clip0_55_7">
<rect width="100" height="86.4469" fill="white"/>
</clipPath>
</defs>
</svg>
