<svg width="40" height="41" viewBox="0 0 40 41" fill="none" xmlns="http://www.w3.org/2000/svg">
<path d="M0 40.0679L2.87225 29.3882C0.555877 25.228 -0.180046 20.3733 0.799492 15.7151C1.77903 11.0568 4.40836 6.90748 8.20497 4.02841C12.0016 1.14943 16.7108 -0.266186 21.4686 0.041352C26.2263 0.34889 30.7134 2.35903 34.1063 5.70286C37.4994 9.04669 39.5707 13.4999 39.9404 18.2454C40.3099 22.9908 38.953 27.7102 36.1186 31.5375C33.2841 35.3647 29.1622 38.0432 24.5094 39.0813C19.8564 40.1194 14.9846 39.4476 10.7879 37.1891L0 40.0679ZM11.308 33.1927L11.9752 33.5878C15.015 35.3866 18.5654 36.131 22.0733 35.705C25.5811 35.2789 28.8492 33.7064 31.3683 31.2324C33.8875 28.7584 35.5161 25.522 36.0004 22.0275C36.4848 18.533 35.7977 14.9766 34.0461 11.9127C32.2945 8.8488 29.577 6.44936 26.3168 5.08831C23.0567 3.72735 19.4372 3.48119 16.0223 4.38833C12.6075 5.29538 9.58911 7.30482 7.43757 10.1034C5.28603 12.9019 4.12216 16.3323 4.12741 19.8601C4.12461 22.7852 4.93485 25.6538 6.46817 28.1464L6.88659 28.8351L5.28087 34.7958L11.308 33.1927Z" fill="white"/>
<path fill-rule="evenodd" clip-rule="evenodd" d="M27.5007 22.6026C27.1096 22.2876 26.6516 22.0659 26.1617 21.9545C25.6718 21.843 25.1629 21.8445 24.6737 21.9591C23.9387 22.2639 23.4637 23.4154 22.9888 23.9912C22.8887 24.1292 22.7415 24.226 22.5749 24.2634C22.4084 24.3008 22.2339 24.2762 22.0842 24.1943C19.3932 23.1422 17.1377 21.2126 15.6839 18.7191C15.5598 18.5635 15.5011 18.3659 15.5201 18.168C15.5392 17.97 15.6343 17.7872 15.7856 17.6578C16.3153 17.1343 16.7043 16.4859 16.9164 15.7726C16.9635 14.9858 16.783 14.202 16.3963 13.5147C16.0973 12.5512 15.5283 11.6933 14.7567 11.0424C14.3586 10.8637 13.9172 10.8038 13.4858 10.8699C13.0545 10.936 12.6515 11.1252 12.3254 11.4149C11.7594 11.9024 11.3102 12.5105 11.0108 13.1943C10.7113 13.8782 10.5693 14.6203 10.5953 15.3661C10.597 15.785 10.6502 16.2021 10.7536 16.608C11.0162 17.5833 11.42 18.515 11.9523 19.3738C12.3362 20.0317 12.7553 20.6686 13.2074 21.2817C14.6769 23.2957 16.5241 25.0057 18.6466 26.3167C19.7116 26.983 20.8499 27.5247 22.0389 27.9311C23.2741 28.49 24.6379 28.7046 25.9854 28.552C26.7532 28.436 27.4806 28.1334 28.1037 27.6707C28.7268 27.2081 29.2265 26.5997 29.5588 25.899C29.7539 25.4758 29.8132 25.0025 29.7283 24.5443C29.5248 23.6073 28.2696 23.0541 27.5007 22.6026Z" fill="white"/>
</svg>
